<svg xmlns:mydata="http://www.w3.org/2000/svg" mydata:contrastcolor="0076A8" mydata:template="Contrast"
    mydata:presentation="2.5" mydata:layouttype="undefined" mydata:specialfontid="undefined" mydata:id1="015"
    mydata:id2="001" mydata:companyname="Pay Loq" mydata:companytagline="payments" version="1.1"
    xmlns="http://www.w3.org/2000/svg" xmlns:xlink="http://www.w3.org/1999/xlink" style="height: 401px;"
    viewBox="0 0 550 370">
    <g fill="#101820" fill-rule="none" stroke="none" stroke-width="1" stroke-linecap="butt" stroke-linejoin="miter"
        stroke-miterlimit="10" stroke-dasharray="" stroke-dashoffset="0" font-family="none" font-weight="none"
        font-size="none" text-anchor="none" style="mix-blend-mode: normal">
        <g
            data-paper-data="{&quot;isGlobalGroup&quot;:true,&quot;bounds&quot;:{&quot;x&quot;:65.00000000000001,&quot;y&quot;:177.96736904487125,&quot;width&quot;:420,&quot;height&quot;:114.0652619102575}}">
            <g data-paper-data="{&quot;isSecondaryText&quot;:true}" fill-rule="nonzero" id="element-id-90022">
                <path
                    d="M201.3127,280.54683v-1.99722h1.37792c3.05001,0 5.01627,-2.04366 5.01627,-5.00078c0,-2.50813 -2.07463,-4.53631 -4.78403,-4.53631h-4.00992v11.53432zM201.3127,276.38209v-5.20205h1.45534c1.67209,0 2.52362,1.14569 2.52362,2.55458c0,1.61016 -0.9599,2.64747 -2.66296,2.64747z"
                    data-paper-data="{&quot;glyphName&quot;:&quot;P&quot;,&quot;glyphIndex&quot;:0,&quot;firstGlyphOfWord&quot;:true,&quot;word&quot;:1}"
                    id="element-id-16028"></path>
                <path
                    d="M234.59353,280.54683h2.61651l-6.10003,-11.73559l-6.08455,11.73559h2.47717l0.74315,-1.54823h5.58911zM231.01712,273.23918l1.76498,3.59189h-3.499z"
                    data-paper-data="{&quot;glyphName&quot;:&quot;A&quot;,&quot;glyphIndex&quot;:1,&quot;word&quot;:1}"
                    id="element-id-93085"></path>
                <path
                    d="M258.77509,274.67904l-3.37514,-5.66652h-2.75585l4.89241,8.03532v3.499h2.39976v-3.71575l4.7221,-7.81856h-2.52362z"
                    data-paper-data="{&quot;glyphName&quot;:&quot;Y&quot;,&quot;glyphIndex&quot;:2,&quot;word&quot;:1}"
                    id="element-id-43543"></path>
                <path
                    d="M294.94717,273.47142l-6.14647,-4.66017v11.73559h2.39976v-6.95155l3.74672,2.7094l3.74672,-2.7094v6.95155h2.39976v-11.73559z"
                    data-paper-data="{&quot;glyphName&quot;:&quot;M&quot;,&quot;glyphIndex&quot;:3,&quot;word&quot;:1}"
                    id="element-id-80279"></path>
                <path
                    d="M332.0759,280.54683v-2.16752h-4.75307v-2.87971h4.33504v-2.16752h-4.33504v-2.15204h3.73123v-2.16752h-6.13099v11.53432z"
                    data-paper-data="{&quot;glyphName&quot;:&quot;E&quot;,&quot;glyphIndex&quot;:4,&quot;word&quot;:1}"
                    id="element-id-96350"></path>
                <path
                    d="M362.02247,275.68539l-8.20562,-6.88962v11.75107h2.39976v-6.62643l8.20562,6.8277v-11.73559h-2.39976z"
                    data-paper-data="{&quot;glyphName&quot;:&quot;N&quot;,&quot;glyphIndex&quot;:5,&quot;word&quot;:1}"
                    id="element-id-32841"></path>
                <path d="M391.37816,280.54683v-9.36679h3.03453v-2.16752h-8.28303v2.16752h2.84874v9.36679z"
                    data-paper-data="{&quot;glyphName&quot;:&quot;T&quot;,&quot;glyphIndex&quot;:6,&quot;word&quot;:1}"
                    id="element-id-45467"></path>
                <path
                    d="M416.31406,275.43767c1.11473,0.12386 1.73402,0.6967 1.73402,1.62564c0,0.74315 -0.61929,1.37792 -1.40889,1.37792c-0.68122,0 -1.2231,-0.17031 -1.7495,-0.83604l-1.98173,1.45534c1.09924,1.20762 2.41524,1.68757 3.73123,1.68757c2.02818,0 3.90154,-1.61016 3.90154,-3.85509c0,-2.22945 -1.62564,-3.56093 -3.59189,-3.68479c-1.2231,-0.07741 -1.61016,-0.55736 -1.61016,-1.08376c0,-0.63477 0.4335,-1.02183 1.06828,-1.02183c0.40254,0 0.91346,0.24772 1.2231,0.57285l1.88884,-1.37792c-0.88249,-1.0528 -1.96625,-1.4863 -3.11194,-1.4863c-1.59468,0 -3.39062,1.37792 -3.39062,3.3287c0,1.81143 1.30051,3.0655 3.29773,3.29773z"
                    data-paper-data="{&quot;glyphName&quot;:&quot;S&quot;,&quot;glyphIndex&quot;:7,&quot;lastGlyphOfWord&quot;:true,&quot;word&quot;:1}"
                    id="element-id-60015"></path>
            </g>
            <g data-paper-data="{&quot;isPrimaryText&quot;:true}" fill-rule="nonzero" id="element-id-51632">
                <path
                    d="M213.21261,230.28939v20.60336h-14.29966v-61.64085h21.74564c4.34349,0 8.07353,0.51473 11.19012,1.54419c3.11659,1.02946 5.6832,2.44674 7.69982,4.25182c2.01662,1.80509 3.5044,3.93452 4.46336,6.38831c0.95895,2.45379 1.43843,5.10501 1.43843,7.95366c0,3.07429 -0.49358,5.89473 -1.48073,8.46134c-0.98716,2.56661 -2.49609,4.76655 -4.52682,6.59984c-2.03072,1.83329 -4.60438,3.26467 -7.72097,4.29413c-3.11659,1.02946 -6.80433,1.54419 -11.0632,1.54419zM213.21261,219.50118h7.44598c3.72299,0 6.40241,-0.88844 8.03827,-2.66532c1.63586,-1.77688 2.45379,-4.25887 2.45379,-7.44598c0,-1.41022 -0.21153,-2.69353 -0.6346,-3.84991c-0.42307,-1.15638 -1.06472,-2.15059 -1.92495,-2.98262c-0.86024,-0.83203 -1.94611,-1.47368 -3.25762,-1.92495c-1.31151,-0.45127 -2.8698,-0.67691 -4.67489,-0.67691h-7.44598z"
                    data-paper-data="{&quot;glyphName&quot;:&quot;P&quot;,&quot;glyphIndex&quot;:0,&quot;firstGlyphOfWord&quot;:true,&quot;word&quot;:1}"
                    id="element-id-66845"></path>
                <path
                    d="M281.07254,250.89275c-1.241,0 -2.17879,-0.16923 -2.81339,-0.50768c-0.6346,-0.33845 -1.16343,-1.04357 -1.5865,-2.11533l-0.93075,-2.41148c-1.09997,0.93075 -2.15764,1.74868 -3.173,2.45379c-1.01536,0.70511 -2.06598,1.30446 -3.15185,1.79803c-1.08587,0.49358 -2.24225,0.86024 -3.46915,1.09997c-1.22689,0.23974 -2.58776,0.35961 -4.0826,0.35961c-2.00252,0 -3.8217,-0.26089 -5.45756,-0.78267c-1.63586,-0.52178 -3.02493,-1.29035 -4.16721,-2.30571c-1.14228,-1.01536 -2.02367,-2.27751 -2.64417,-3.78645c-0.6205,-1.50894 -0.93075,-3.25056 -0.93075,-5.22488c0,-1.55125 0.39486,-3.1448 1.18459,-4.78066c0.78972,-1.63586 2.15764,-3.12364 4.10375,-4.46336c1.94611,-1.33971 4.56912,-2.46084 7.86904,-3.36338c3.29992,-0.90254 7.46008,-1.41022 12.48047,-1.52304v-1.86149c0,-2.56661 -0.52883,-4.42105 -1.5865,-5.56333c-1.05767,-1.14228 -2.55955,-1.71342 -4.50566,-1.71342c-1.55125,0 -2.82045,0.16923 -3.8076,0.50768c-0.98716,0.33845 -1.86855,0.71921 -2.64417,1.14228c-0.77562,0.42307 -1.53009,0.80383 -2.26341,1.14228c-0.73332,0.33845 -1.60765,0.50768 -2.62301,0.50768c-0.90254,0 -1.67111,-0.21858 -2.30571,-0.65575c-0.6346,-0.43717 -1.13523,-0.9801 -1.50189,-1.62881l-2.36917,-4.10375c2.65122,-2.34097 5.59153,-4.0826 8.82094,-5.22488c3.22941,-1.14228 6.69151,-1.71342 10.38629,-1.71342c2.65122,0 5.04155,0.43012 7.17098,1.29035c2.12944,0.86024 3.93452,2.05893 5.41526,3.59607c1.48073,1.53714 2.61596,3.36338 3.40569,5.47872c0.78972,2.11533 1.18459,4.4281 1.18459,6.9383v27.41474zM266.01136,242.89678c1.69227,0 3.173,-0.29615 4.4422,-0.88844c1.2692,-0.59229 2.5525,-1.55125 3.84991,-2.87685v-6.09216c-2.62301,0.11282 -4.78066,0.33845 -6.47292,0.67691c-1.69227,0.33845 -3.03198,0.76152 -4.01914,1.2692c-0.98716,0.50768 -1.67111,1.08587 -2.05187,1.73457c-0.38076,0.6487 -0.57114,1.35381 -0.57114,2.11533c0,1.49484 0.40896,2.54545 1.22689,3.15185c0.81793,0.6064 2.01662,0.90959 3.59607,0.90959z"
                    data-paper-data="{&quot;glyphName&quot;:&quot;a&quot;,&quot;glyphIndex&quot;:1,&quot;word&quot;:1}"
                    id="element-id-76217"></path>
                <path
                    d="M312.63333,262.27325c-0.39486,0.87434 -0.87434,1.51599 -1.43843,1.92495c-0.56409,0.40896 -1.46663,0.61345 -2.70763,0.61345h-9.81515l8.46134,-17.76881l-17.51497,-40.02213h11.59203c1.01536,0 1.80509,0.22564 2.36917,0.67691c0.56409,0.45127 0.95895,0.98716 1.18459,1.60765l7.19214,18.91109c0.67691,1.74868 1.22689,3.49735 1.64996,5.24603c0.28204,-0.90254 0.59229,-1.79098 0.93075,-2.66532c0.33845,-0.87434 0.6628,-1.76278 0.97305,-2.66532l6.51523,-18.82648c0.22564,-0.6487 0.66986,-1.19164 1.33266,-1.62881c0.6628,-0.43717 1.37497,-0.65575 2.13649,-0.65575h10.57667z"
                    data-paper-data="{&quot;glyphName&quot;:&quot;y&quot;,&quot;glyphIndex&quot;:2,&quot;lastGlyphOfWord&quot;:true,&quot;word&quot;:1}"
                    id="element-id-95862"></path>
                <path d="M363.996,247.10282h29.23039v3.78993h-33.67376v-61.64085h4.44337z"
                    data-paper-data="{&quot;glyphName&quot;:&quot;L&quot;,&quot;glyphIndex&quot;:3,&quot;firstGlyphOfWord&quot;:true,&quot;fontStyleEffect&quot;:true,&quot;word&quot;:2}"
                    id="element-id-30435"></path>
                <path
                    d="M419.52211,206.3438c3.1505,0 5.96975,0.53735 8.45776,1.61205c2.48801,1.0747 4.58589,2.59843 6.29364,4.57117c1.70775,1.97274 3.01064,4.35034 3.90868,7.13279c0.89804,2.78245 1.34706,5.89614 1.34706,9.34108c0,3.44494 -0.44902,6.55127 -1.34706,9.319c-0.89804,2.76773 -2.20093,5.13796 -3.90868,7.11071c-1.70775,1.97274 -3.80563,3.4891 -6.29364,4.54908c-2.48801,1.05998 -5.30727,1.58997 -8.45776,1.58997c-3.1505,0 -5.96975,-0.52999 -8.45776,-1.58997c-2.48801,-1.05998 -4.59325,-2.57634 -6.31572,-4.54908c-1.72247,-1.97274 -3.03272,-4.34298 -3.93076,-7.11071c-0.89804,-2.76773 -1.34706,-5.87406 -1.34706,-9.319c0,-3.44494 0.44902,-6.55863 1.34706,-9.34108c0.89804,-2.78245 2.20829,-5.16005 3.93076,-7.13279c1.72247,-1.97274 3.82771,-3.49646 6.31572,-4.57117c2.48801,-1.0747 5.30727,-1.61205 8.45776,-1.61205zM419.52211,248.25721c2.62051,0 4.90977,-0.44902 6.86779,-1.34706c1.95802,-0.89804 3.59216,-2.18621 4.90241,-3.86451c1.31025,-1.6783 2.28926,-3.70257 2.93703,-6.07281c0.64777,-2.37024 0.97165,-5.02755 0.97165,-7.97194c0,-2.91495 -0.32388,-5.5649 -0.97165,-7.94986c-0.64777,-2.38496 -1.62678,-4.42395 -2.93703,-6.11697c-1.31025,-1.69303 -2.94439,-2.99592 -4.90241,-3.90868c-1.95802,-0.91276 -4.24728,-1.36914 -6.86779,-1.36914c-2.62051,0 -4.90977,0.45638 -6.86779,1.36914c-1.95802,0.91276 -3.59216,2.21565 -4.90241,3.90868c-1.31025,1.69303 -2.29663,3.73202 -2.95911,6.11697c-0.66249,2.38496 -0.99373,5.03491 -0.99373,7.94986c0,2.94439 0.33124,5.6017 0.99373,7.97194c0.66249,2.37024 1.64886,4.3945 2.95911,6.07281c1.31025,1.6783 2.94439,2.96647 4.90241,3.86451c1.95802,0.89804 4.24728,1.34706 6.86779,1.34706z"
                    data-paper-data="{&quot;glyphName&quot;:&quot;o&quot;,&quot;glyphIndex&quot;:4,&quot;fontStyleEffect&quot;:true,&quot;word&quot;:2}"
                    id="element-id-76504"></path>
                <path
                    d="M485,206.90539v57.90626h-4.12695v-22.74121c-1.89152,2.52202 -4.09113,4.51385 -6.59882,5.97548c-2.50769,1.46163 -5.30915,2.19244 -8.40436,2.19244c-5.24466,0 -9.33579,-1.81987 -12.27338,-5.45961c-2.93759,-3.63974 -4.40638,-9.09935 -4.40638,-16.37883c0,-3.12387 0.4084,-6.03996 1.22519,-8.74827c0.81679,-2.70831 2.02049,-5.05838 3.61108,-7.05021c1.5906,-1.99183 3.53943,-3.56093 5.84651,-4.7073c2.30708,-1.14637 4.96524,-1.71956 7.97447,-1.71956c2.95192,0 5.50976,0.55886 7.67355,1.67657c2.16378,1.11772 4.01948,2.76563 5.56708,4.94374l0.3869,-4.81477c0.02866,-0.71648 0.44422,-1.07473 1.24668,-1.07473zM467.03057,246.9282c2.83728,0 5.40229,-0.73081 7.69504,-2.19244c2.29275,-1.46163 4.34189,-3.49644 6.14744,-6.10445v-22.61224c-1.54761,-2.35007 -3.33882,-4.04097 -5.37363,-5.07271c-2.03482,-1.03174 -4.32757,-1.54761 -6.87825,-1.54761c-2.52202,0 -4.7288,0.45855 -6.62031,1.37565c-1.89152,0.9171 -3.47495,2.21394 -4.75029,3.89051c-1.27534,1.67657 -2.23543,3.68273 -2.88027,6.01847c-0.64484,2.33574 -0.96725,4.90792 -0.96725,7.71654c0,6.36238 1.17503,11.04102 3.5251,14.03593c2.35007,2.9949 5.71754,4.49236 10.10243,4.49236z"
                    data-paper-data="{&quot;glyphName&quot;:&quot;q&quot;,&quot;glyphIndex&quot;:5,&quot;lastGlyphOfWord&quot;:true,&quot;fontStyleEffect&quot;:true,&quot;word&quot;:2}"
                    id="element-id-2759"></path>
            </g>
            <g data-paper-data="{&quot;fillRule&quot;:&quot;evenodd&quot;,&quot;fillRuleOriginal&quot;:&quot;evenodd&quot;,&quot;isIcon&quot;:true,&quot;iconStyle&quot;:&quot;standalone&quot;,&quot;selectedEffects&quot;:{&quot;container&quot;:&quot;&quot;,&quot;transformation&quot;:&quot;&quot;,&quot;pattern&quot;:&quot;&quot;},&quot;bounds&quot;:{&quot;x&quot;:65.00000000000001,&quot;y&quot;:177.96736904487125,&quot;width&quot;:100.3774304810266,&quot;height&quot;:114.0652619102575},&quot;iconType&quot;:&quot;icon&quot;,&quot;rawIconId&quot;:&quot;224067&quot;,&quot;isDetailed&quot;:false,&quot;suitableAsStandaloneIcon&quot;:true}"
                fill-rule="evenodd" id="element-id-74405">
                <path
                    d="M115.18872,177.96737l-15.8424,9.25196l15.8424,9.12522l-15.8424,9.12522l-15.8424,-9.12522l-15.96914,9.12522l15.96914,9.25196l15.8424,-9.25196l15.8424,9.25196l-15.8424,9.12522l15.8424,9.12522l15.8424,-9.12522l-15.8424,-9.12522l15.8424,-9.25196l-15.8424,-9.12522l15.8424,-9.12522zM162.84265,205.46977l-15.96914,-9.12522l-15.8424,9.12522l15.8424,9.25196zM65,209.65217v18.37718l15.96914,9.12522v18.25044l-15.96914,-9.12522v18.37718l15.96914,9.12522v-18.37718l15.8424,9.25196v18.25044l15.8424,9.12522v-18.25044l-15.8424,-9.12522v-18.37718l15.8424,9.12522v-18.25044l-15.8424,-9.12522v18.25044l-15.8424,-9.12522v-18.37718zM149.40829,237.15457l15.96914,-9.12522v-18.37718l-15.96914,9.12522zM149.40829,255.40501v-18.25044l-15.8424,9.12522v-18.25044l-15.8424,9.12522v18.25044l15.8424,-9.12522v18.37718l-15.8424,9.12522v18.25044l15.8424,-9.12522v-18.25044zM149.40829,255.40501l15.96914,-9.12522v18.37718l-15.96914,9.12522z"
                    data-paper-data="{&quot;isPathIcon&quot;:true}" id="element-id-89070"></path>
            </g>
        </g>
    </g>

    <rect data-element-id="element-id-51632" stroke-width="2" fill="transparent"
        class="invisible-element-box grouping-element" x="199" y="189" width="286" height="76"
        data-element-name="isPrimaryText"></rect>
    <rect data-element-id="element-id-74405" stroke-width="2" fill="transparent"
        class="invisible-element-box grouping-element" x="65" y="178" width="100" height="114"
        data-element-name="isIcon"></rect>
    <rect data-element-id="element-id-89070" stroke-width="2" fill="transparent"
        class="invisible-element-box individual-element" x="65" y="178" width="100" height="114"></rect>
    <rect data-element-id="element-id-66845" stroke-width="2" fill="transparent"
        class="invisible-element-box individual-element" x="199" y="189" width="47" height="62"></rect>
    <rect data-element-id="element-id-95862" stroke-width="2" fill="transparent"
        class="invisible-element-box individual-element" x="290" y="207" width="46" height="58"></rect>
    <rect data-element-id="element-id-90022" stroke-width="2" fill="transparent"
        class="invisible-element-box grouping-element" x="199" y="269" width="222" height="12"
        data-element-name="isSecondaryText"></rect>
    <rect data-element-id="element-id-2759" stroke-width="2" fill="transparent"
        class="invisible-element-box individual-element" x="449" y="206" width="36" height="59"></rect>
    <rect data-element-id="element-id-30435" stroke-width="2" fill="transparent"
        class="invisible-element-box individual-element" x="360" y="189" width="34" height="62"></rect>
    <rect data-element-id="element-id-76504" stroke-width="2" fill="transparent"
        class="invisible-element-box individual-element" x="399" y="206" width="40" height="45"></rect>
    <rect data-element-id="element-id-76217" stroke-width="2" fill="transparent"
        class="invisible-element-box individual-element" x="249" y="206" width="38" height="45"></rect>
    <rect data-element-id="element-id-93085" stroke-width="2" fill="transparent"
        class="invisible-element-box individual-element" x="225" y="269" width="12" height="12"></rect>
    <rect data-element-id="element-id-43543" stroke-width="2" fill="transparent"
        class="invisible-element-box individual-element" x="253" y="269" width="12" height="12"></rect>
    <rect data-element-id="element-id-80279" stroke-width="2" fill="transparent"
        class="invisible-element-box individual-element" x="289" y="269" width="12" height="12"></rect>
    <rect data-element-id="element-id-32841" stroke-width="2" fill="transparent"
        class="invisible-element-box individual-element" x="354" y="269" width="11" height="12"></rect>
    <rect data-element-id="element-id-16028" stroke-width="2" fill="transparent"
        class="invisible-element-box individual-element" x="199" y="269" width="9" height="12"></rect>
    <rect data-element-id="element-id-45467" stroke-width="2" fill="transparent"
        class="invisible-element-box individual-element" x="386" y="269" width="8" height="12"></rect>
    <rect data-element-id="element-id-60015" stroke-width="2" fill="transparent"
        class="invisible-element-box individual-element" x="413" y="269" width="8" height="12"></rect>
    <rect data-element-id="element-id-96350" stroke-width="2" fill="transparent"
        class="invisible-element-box individual-element" x="325" y="269" width="7" height="12"></rect>
</svg>